<svg width="1340" height="112" viewBox="0 0 1340 112" fill="none" xmlns="http://www.w3.org/2000/svg">
<path d="M57.0557 78H47.5342V65.1094H14.0625V78H4.54102V51.7427C4.54102 47.9097 5.2002 44.3818 6.51855 41.1592C7.83691 37.9365 9.66797 35.1655 12.0117 32.8462C14.3555 30.5269 17.1265 28.7202 20.3247 27.4263C23.5229 26.1323 27.0142 25.4854 30.7983 25.4854H52.2583C52.9175 25.4854 53.54 25.6074 54.126 25.8516C54.7119 26.0957 55.2246 26.4375 55.6641 26.877C56.1035 27.3164 56.4453 27.8291 56.6895 28.415C56.9336 29.001 57.0557 29.6235 57.0557 30.2827V78ZM14.0625 55.5879H47.5342V35.0068H30.7983C30.5054 35.0068 29.8828 35.0557 28.9307 35.1533C28.0029 35.2266 26.9165 35.4341 25.6714 35.7759C24.4507 36.1177 23.1567 36.6426 21.7896 37.3506C20.4224 38.0586 19.165 39.0352 18.0176 40.2803C16.8701 41.5254 15.918 43.0879 15.1611 44.9678C14.4287 46.8232 14.0625 49.0815 14.0625 51.7427V55.5879ZM115.613 35.0068H94.6289V78H85.1074V35.0068H64.0869V25.4854H115.613V35.0068ZM170.874 78H127.441C126.758 78 126.123 77.8779 125.537 77.6338C124.951 77.3896 124.438 77.0601 123.999 76.645C123.584 76.2056 123.254 75.6929 123.01 75.1069C122.766 74.521 122.644 73.8862 122.644 73.2026V25.4854H132.166V68.4785H170.874V78ZM229.395 78H219.873V65.1094H186.401V78H176.88V51.7427C176.88 47.9097 177.539 44.3818 178.857 41.1592C180.176 37.9365 182.007 35.1655 184.351 32.8462C186.694 30.5269 189.465 28.7202 192.664 27.4263C195.862 26.1323 199.353 25.4854 203.137 25.4854H224.597C225.256 25.4854 225.879 25.6074 226.465 25.8516C227.051 26.0957 227.563 26.4375 228.003 26.877C228.442 27.3164 228.784 27.8291 229.028 28.415C229.272 29.001 229.395 29.6235 229.395 30.2827V78ZM186.401 55.5879H219.873V35.0068H203.137C202.844 35.0068 202.222 35.0557 201.27 35.1533C200.342 35.2266 199.255 35.4341 198.01 35.7759C196.79 36.1177 195.496 36.6426 194.128 37.3506C192.761 38.0586 191.504 39.0352 190.356 40.2803C189.209 41.5254 188.257 43.0879 187.5 44.9678C186.768 46.8232 186.401 49.0815 186.401 51.7427V55.5879ZM292.969 73.9351C292.969 74.6187 292.834 75.2534 292.566 75.8394C292.322 76.4253 291.98 76.938 291.541 77.3774C291.125 77.7925 290.625 78.1221 290.039 78.3662C289.453 78.6104 288.831 78.7324 288.171 78.7324C287.585 78.7324 286.987 78.6226 286.377 78.4028C285.791 78.1831 285.266 77.8291 284.802 77.3408L250.012 41.0127V78H240.491V29.5503C240.491 28.5737 240.759 27.6948 241.296 26.9136C241.858 26.1079 242.566 25.5098 243.42 25.1191C244.324 24.7529 245.251 24.6675 246.204 24.8628C247.156 25.0337 247.974 25.4731 248.657 26.1812L283.447 62.4727V25.4854H292.969V73.9351ZM351.526 35.0068H330.542V78H321.021V35.0068H300V25.4854H351.526V35.0068ZM408.252 78H398.73V65.1094H365.259V78H355.737V51.7427C355.737 47.9097 356.396 44.3818 357.715 41.1592C359.033 37.9365 360.864 35.1655 363.208 32.8462C365.552 30.5269 368.323 28.7202 371.521 27.4263C374.719 26.1323 378.21 25.4854 381.995 25.4854H403.455C404.114 25.4854 404.736 25.6074 405.322 25.8516C405.908 26.0957 406.421 26.4375 406.86 26.877C407.3 27.3164 407.642 27.8291 407.886 28.415C408.13 29.001 408.252 29.6235 408.252 30.2827V78ZM365.259 55.5879H398.73V35.0068H381.995C381.702 35.0068 381.079 35.0557 380.127 35.1533C379.199 35.2266 378.113 35.4341 376.868 35.7759C375.647 36.1177 374.353 36.6426 372.986 37.3506C371.619 38.0586 370.361 39.0352 369.214 40.2803C368.066 41.5254 367.114 43.0879 366.357 44.9678C365.625 46.8232 365.259 49.0815 365.259 51.7427V55.5879ZM486.914 56.54H456.848V46.9453H486.914V56.54ZM491.199 78H456.848C455.53 78 454.089 77.7681 452.527 77.3042C450.964 76.8403 449.512 76.0835 448.169 75.0337C446.851 73.9595 445.74 72.5801 444.836 70.8955C443.958 69.1865 443.518 67.0991 443.518 64.6333V30.2827C443.518 29.6235 443.64 29.001 443.884 28.415C444.128 27.8291 444.458 27.3164 444.873 26.877C445.312 26.4375 445.825 26.0957 446.411 25.8516C446.997 25.6074 447.632 25.4854 448.315 25.4854H491.199V35.0068H453.04V64.6333C453.04 65.8784 453.369 66.8306 454.028 67.4897C454.688 68.1489 455.652 68.4785 456.921 68.4785H491.199V78ZM524.414 44.2354L540.454 25.4854H553.455L530.859 51.8159L553.308 78H540.381L524.414 59.3965L508.521 78H495.557L517.969 51.8159L495.483 25.4854H508.374L524.414 44.2354ZM607.69 78H564.258C563.574 78 562.939 77.8779 562.354 77.6338C561.768 77.3896 561.255 77.0601 560.815 76.645C560.4 76.2056 560.071 75.6929 559.827 75.1069C559.583 74.521 559.46 73.8862 559.46 73.2026V25.4854H568.982V68.4785H607.69V78ZM663.354 73.2026C663.354 73.8862 663.232 74.521 662.988 75.1069C662.744 75.6929 662.402 76.2056 661.963 76.645C661.523 77.0601 661.011 77.3896 660.425 77.6338C659.839 77.8779 659.216 78 658.557 78H637.097C635.071 78 633.02 77.7803 630.945 77.3408C628.87 76.9014 626.855 76.23 624.902 75.3267C622.974 74.3989 621.155 73.2271 619.446 71.811C617.737 70.395 616.235 68.7227 614.941 66.7939C613.672 64.8408 612.671 62.6191 611.938 60.1289C611.206 57.6143 610.84 54.8188 610.84 51.7427V25.4854H620.361V51.7427C620.361 54.4282 620.728 56.6987 621.46 58.5542C622.217 60.4097 623.169 61.96 624.316 63.2051C625.464 64.4502 626.721 65.4268 628.088 66.1348C629.456 66.8428 630.75 67.3677 631.97 67.7095C633.215 68.0513 634.302 68.271 635.229 68.3687C636.182 68.4419 636.804 68.4785 637.097 68.4785H653.833V25.4854H663.354V73.2026ZM724.915 62.5459C724.915 64.4258 724.67 66.1226 724.182 67.6362C723.718 69.1255 723.096 70.4438 722.314 71.5913C721.533 72.7388 720.618 73.7153 719.568 74.521C718.518 75.3267 717.432 75.9858 716.309 76.4985C715.186 77.0112 714.038 77.3896 712.866 77.6338C711.719 77.8779 710.632 78 709.607 78H672.876V68.4785H709.607C711.438 68.4785 712.854 67.9414 713.855 66.8672C714.88 65.793 715.393 64.3525 715.393 62.5459C715.393 61.667 715.259 60.8613 714.99 60.1289C714.722 59.3965 714.331 58.7617 713.818 58.2246C713.33 57.6875 712.72 57.2725 711.987 56.9795C711.279 56.6865 710.486 56.54 709.607 56.54H687.708C686.169 56.54 684.509 56.2715 682.727 55.7344C680.945 55.1729 679.285 54.2817 677.747 53.061C676.233 51.8403 674.963 50.2412 673.938 48.2637C672.937 46.2861 672.437 43.8691 672.437 41.0127C672.437 38.1562 672.937 35.7515 673.938 33.7983C674.963 31.8208 676.233 30.2217 677.747 29.001C679.285 27.7559 680.945 26.8647 682.727 26.3276C684.509 25.7661 686.169 25.4854 687.708 25.4854H720.117V35.0068H687.708C685.901 35.0068 684.485 35.5562 683.459 36.6548C682.458 37.7534 681.958 39.2061 681.958 41.0127C681.958 42.8438 682.458 44.2964 683.459 45.3706C684.485 46.4204 685.901 46.9453 687.708 46.9453H709.607H709.68C710.706 46.9697 711.792 47.1162 712.939 47.3848C714.087 47.6289 715.222 48.0195 716.345 48.5566C717.493 49.0938 718.579 49.7773 719.604 50.6074C720.63 51.4131 721.533 52.3896 722.314 53.5371C723.12 54.6846 723.755 56.0029 724.219 57.4922C724.683 58.9814 724.915 60.666 724.915 62.5459ZM742.419 78H732.898V25.4854H742.419V78ZM806.104 25.4854L781.238 76.1323C780.847 76.9136 780.261 77.5361 779.48 78C778.723 78.4883 777.881 78.7324 776.953 78.7324C776.05 78.7324 775.208 78.4883 774.426 78C773.669 77.5361 773.083 76.9136 772.668 76.1323L747.839 25.4854H758.496L776.953 63.3149L795.483 25.4854H806.104ZM854.663 56.54H824.597V46.9453H854.663V56.54ZM858.948 78H824.597C823.279 78 821.838 77.7681 820.276 77.3042C818.713 76.8403 817.261 76.0835 815.918 75.0337C814.6 73.9595 813.489 72.5801 812.585 70.8955C811.707 69.1865 811.267 67.0991 811.267 64.6333V30.2827C811.267 29.6235 811.389 29.001 811.633 28.415C811.877 27.8291 812.207 27.3164 812.622 26.877C813.062 26.4375 813.574 26.0957 814.16 25.8516C814.746 25.6074 815.381 25.4854 816.064 25.4854H858.948V35.0068H820.789V64.6333C820.789 65.8784 821.118 66.8306 821.777 67.4897C822.437 68.1489 823.401 68.4785 824.67 68.4785H858.948V78ZM945.044 43.1367C945.044 45.3096 944.775 47.2505 944.238 48.9595C943.701 50.6685 942.969 52.1821 942.041 53.5005C941.138 54.7944 940.088 55.9053 938.892 56.833C937.695 57.7607 936.438 58.5298 935.12 59.1401C933.826 59.7261 932.507 60.1533 931.165 60.4219C929.846 60.6904 928.601 60.8247 927.429 60.8247L947.314 78H932.593L912.744 60.8247H905.896V51.3032H927.429C928.625 51.2056 929.712 50.9614 930.688 50.5708C931.689 50.1558 932.544 49.6064 933.252 48.9229C933.984 48.2393 934.546 47.4214 934.937 46.4692C935.327 45.4927 935.522 44.3818 935.522 43.1367V37.1309C935.522 36.5938 935.449 36.1909 935.303 35.9224C935.181 35.6294 935.01 35.4219 934.79 35.2998C934.595 35.1533 934.375 35.0679 934.131 35.0435C933.911 35.019 933.704 35.0068 933.508 35.0068H902.087V78H892.566V30.2827C892.566 29.6235 892.688 29.001 892.932 28.415C893.176 27.8291 893.506 27.3164 893.921 26.877C894.36 26.4375 894.873 26.0957 895.459 25.8516C896.045 25.6074 896.68 25.4854 897.363 25.4854H933.508C935.632 25.4854 937.427 25.876 938.892 26.6572C940.356 27.4141 941.541 28.3784 942.444 29.5503C943.372 30.6978 944.031 31.9429 944.421 33.2856C944.836 34.6284 945.044 35.8857 945.044 37.0576V43.1367ZM997.778 56.54H967.712V46.9453H997.778V56.54ZM1002.06 78H967.712C966.394 78 964.954 77.7681 963.391 77.3042C961.829 76.8403 960.376 76.0835 959.033 75.0337C957.715 73.9595 956.604 72.5801 955.701 70.8955C954.822 69.1865 954.382 67.0991 954.382 64.6333V30.2827C954.382 29.6235 954.504 29.001 954.749 28.415C954.993 27.8291 955.322 27.3164 955.737 26.877C956.177 26.4375 956.689 26.0957 957.275 25.8516C957.861 25.6074 958.496 25.4854 959.18 25.4854H1002.06V35.0068H963.904V64.6333C963.904 65.8784 964.233 66.8306 964.893 67.4897C965.552 68.1489 966.516 68.4785 967.786 68.4785H1002.06V78ZM1063.77 73.9351C1063.77 74.6187 1063.64 75.2534 1063.37 75.8394C1063.12 76.4253 1062.78 76.938 1062.34 77.3774C1061.93 77.7925 1061.43 78.1221 1060.84 78.3662C1060.25 78.6104 1059.63 78.7324 1058.97 78.7324C1058.39 78.7324 1057.79 78.6226 1057.18 78.4028C1056.59 78.1831 1056.07 77.8291 1055.6 77.3408L1020.81 41.0127V78H1011.29V29.5503C1011.29 28.5737 1011.56 27.6948 1012.1 26.9136C1012.66 26.1079 1013.37 25.5098 1014.22 25.1191C1015.12 24.7529 1016.05 24.6675 1017 24.8628C1017.96 25.0337 1018.77 25.4731 1019.46 26.1812L1054.25 62.4727V25.4854H1063.77V73.9351ZM1122.33 35.0068H1101.34V78H1091.82V35.0068H1070.8V25.4854H1122.33V35.0068ZM1179.05 78H1169.53V65.1094H1136.06V78H1126.54V51.7427C1126.54 47.9097 1127.2 44.3818 1128.52 41.1592C1129.83 37.9365 1131.67 35.1655 1134.01 32.8462C1136.35 30.5269 1139.12 28.7202 1142.32 27.4263C1145.52 26.1323 1149.01 25.4854 1152.8 25.4854H1174.26C1174.91 25.4854 1175.54 25.6074 1176.12 25.8516C1176.71 26.0957 1177.22 26.4375 1177.66 26.877C1178.1 27.3164 1178.44 27.8291 1178.69 28.415C1178.93 29.001 1179.05 29.6235 1179.05 30.2827V78ZM1136.06 55.5879H1169.53V35.0068H1152.8C1152.5 35.0068 1151.88 35.0557 1150.93 35.1533C1150 35.2266 1148.91 35.4341 1147.67 35.7759C1146.45 36.1177 1145.15 36.6426 1143.79 37.3506C1142.42 38.0586 1141.16 39.0352 1140.01 40.2803C1138.87 41.5254 1137.92 43.0879 1137.16 44.9678C1136.43 46.8232 1136.06 49.0815 1136.06 51.7427V55.5879ZM1238.38 78H1194.95C1194.26 78 1193.63 77.8779 1193.04 77.6338C1192.46 77.3896 1191.94 77.0601 1191.5 76.645C1191.09 76.2056 1190.76 75.6929 1190.52 75.1069C1190.27 74.521 1190.15 73.8862 1190.15 73.2026V25.4854H1199.67V68.4785H1238.38V78ZM1295.84 62.5459C1295.84 64.4258 1295.59 66.1226 1295.1 67.6362C1294.64 69.1255 1294.02 70.4438 1293.24 71.5913C1292.46 72.7388 1291.54 73.7153 1290.49 74.521C1289.44 75.3267 1288.35 75.9858 1287.23 76.4985C1286.11 77.0112 1284.96 77.3896 1283.79 77.6338C1282.64 77.8779 1281.56 78 1280.53 78H1243.8V68.4785H1280.53C1282.36 68.4785 1283.78 67.9414 1284.78 66.8672C1285.8 65.793 1286.32 64.3525 1286.32 62.5459C1286.32 61.667 1286.18 60.8613 1285.91 60.1289C1285.64 59.3965 1285.25 58.7617 1284.74 58.2246C1284.25 57.6875 1283.64 57.2725 1282.91 56.9795C1282.2 56.6865 1281.41 56.54 1280.53 56.54H1258.63C1257.09 56.54 1255.43 56.2715 1253.65 55.7344C1251.87 55.1729 1250.21 54.2817 1248.67 53.061C1247.16 51.8403 1245.89 50.2412 1244.86 48.2637C1243.86 46.2861 1243.36 43.8691 1243.36 41.0127C1243.36 38.1562 1243.86 35.7515 1244.86 33.7983C1245.89 31.8208 1247.16 30.2217 1248.67 29.001C1250.21 27.7559 1251.87 26.8647 1253.65 26.3276C1255.43 25.7661 1257.09 25.4854 1258.63 25.4854H1291.04V35.0068H1258.63C1256.82 35.0068 1255.41 35.5562 1254.38 36.6548C1253.38 37.7534 1252.88 39.2061 1252.88 41.0127C1252.88 42.8438 1253.38 44.2964 1254.38 45.3706C1255.41 46.4204 1256.82 46.9453 1258.63 46.9453H1280.53H1280.6C1281.63 46.9697 1282.71 47.1162 1283.86 47.3848C1285.01 47.6289 1286.15 48.0195 1287.27 48.5566C1288.42 49.0938 1289.5 49.7773 1290.53 50.6074C1291.55 51.4131 1292.46 52.3896 1293.24 53.5371C1294.04 54.6846 1294.68 56.0029 1295.14 57.4922C1295.61 58.9814 1295.84 60.666 1295.84 62.5459Z" fill="#E5E5E5"/>
<path d="M57.0557 74H47.5342V61.1094H14.0625V74H4.54102V47.7427C4.54102 43.9097 5.2002 40.3818 6.51855 37.1592C7.83691 33.9365 9.66797 31.1655 12.0117 28.8462C14.3555 26.5269 17.1265 24.7202 20.3247 23.4263C23.5229 22.1323 27.0142 21.4854 30.7983 21.4854H52.2583C52.9175 21.4854 53.54 21.6074 54.126 21.8516C54.7119 22.0957 55.2246 22.4375 55.6641 22.877C56.1035 23.3164 56.4453 23.8291 56.6895 24.415C56.9336 25.001 57.0557 25.6235 57.0557 26.2827V74ZM14.0625 51.5879H47.5342V31.0068H30.7983C30.5054 31.0068 29.8828 31.0557 28.9307 31.1533C28.0029 31.2266 26.9165 31.4341 25.6714 31.7759C24.4507 32.1177 23.1567 32.6426 21.7896 33.3506C20.4224 34.0586 19.165 35.0352 18.0176 36.2803C16.8701 37.5254 15.918 39.0879 15.1611 40.9678C14.4287 42.8232 14.0625 45.0815 14.0625 47.7427V51.5879ZM115.613 31.0068H94.6289V74H85.1074V31.0068H64.0869V21.4854H115.613V31.0068ZM170.874 74H127.441C126.758 74 126.123 73.8779 125.537 73.6338C124.951 73.3896 124.438 73.0601 123.999 72.645C123.584 72.2056 123.254 71.6929 123.01 71.1069C122.766 70.521 122.644 69.8862 122.644 69.2026V21.4854H132.166V64.4785H170.874V74ZM229.395 74H219.873V61.1094H186.401V74H176.88V47.7427C176.88 43.9097 177.539 40.3818 178.857 37.1592C180.176 33.9365 182.007 31.1655 184.351 28.8462C186.694 26.5269 189.465 24.7202 192.664 23.4263C195.862 22.1323 199.353 21.4854 203.137 21.4854H224.597C225.256 21.4854 225.879 21.6074 226.465 21.8516C227.051 22.0957 227.563 22.4375 228.003 22.877C228.442 23.3164 228.784 23.8291 229.028 24.415C229.272 25.001 229.395 25.6235 229.395 26.2827V74ZM186.401 51.5879H219.873V31.0068H203.137C202.844 31.0068 202.222 31.0557 201.27 31.1533C200.342 31.2266 199.255 31.4341 198.01 31.7759C196.79 32.1177 195.496 32.6426 194.128 33.3506C192.761 34.0586 191.504 35.0352 190.356 36.2803C189.209 37.5254 188.257 39.0879 187.5 40.9678C186.768 42.8232 186.401 45.0815 186.401 47.7427V51.5879ZM292.969 69.9351C292.969 70.6187 292.834 71.2534 292.566 71.8394C292.322 72.4253 291.98 72.938 291.541 73.3774C291.125 73.7925 290.625 74.1221 290.039 74.3662C289.453 74.6104 288.831 74.7324 288.171 74.7324C287.585 74.7324 286.987 74.6226 286.377 74.4028C285.791 74.1831 285.266 73.8291 284.802 73.3408L250.012 37.0127V74H240.491V25.5503C240.491 24.5737 240.759 23.6948 241.296 22.9136C241.858 22.1079 242.566 21.5098 243.42 21.1191C244.324 20.7529 245.251 20.6675 246.204 20.8628C247.156 21.0337 247.974 21.4731 248.657 22.1812L283.447 58.4727V21.4854H292.969V69.9351ZM351.526 31.0068H330.542V74H321.021V31.0068H300V21.4854H351.526V31.0068ZM408.252 74H398.73V61.1094H365.259V74H355.737V47.7427C355.737 43.9097 356.396 40.3818 357.715 37.1592C359.033 33.9365 360.864 31.1655 363.208 28.8462C365.552 26.5269 368.323 24.7202 371.521 23.4263C374.719 22.1323 378.21 21.4854 381.995 21.4854H403.455C404.114 21.4854 404.736 21.6074 405.322 21.8516C405.908 22.0957 406.421 22.4375 406.86 22.877C407.3 23.3164 407.642 23.8291 407.886 24.415C408.13 25.001 408.252 25.6235 408.252 26.2827V74ZM365.259 51.5879H398.73V31.0068H381.995C381.702 31.0068 381.079 31.0557 380.127 31.1533C379.199 31.2266 378.113 31.4341 376.868 31.7759C375.647 32.1177 374.353 32.6426 372.986 33.3506C371.619 34.0586 370.361 35.0352 369.214 36.2803C368.066 37.5254 367.114 39.0879 366.357 40.9678C365.625 42.8232 365.259 45.0815 365.259 47.7427V51.5879Z" fill="#FF0000"/>
<path d="M486.914 52.54H456.848V42.9453H486.914V52.54ZM491.199 74H456.848C455.53 74 454.089 73.7681 452.527 73.3042C450.964 72.8403 449.512 72.0835 448.169 71.0337C446.851 69.9595 445.74 68.5801 444.836 66.8955C443.958 65.1865 443.518 63.0991 443.518 60.6333V26.2827C443.518 25.6235 443.64 25.001 443.884 24.415C444.128 23.8291 444.458 23.3164 444.873 22.877C445.312 22.4375 445.825 22.0957 446.411 21.8516C446.997 21.6074 447.632 21.4854 448.315 21.4854H491.199V31.0068H453.04V60.6333C453.04 61.8784 453.369 62.8306 454.028 63.4897C454.688 64.1489 455.652 64.4785 456.921 64.4785H491.199V74ZM524.414 40.2354L540.454 21.4854H553.455L530.859 47.8159L553.308 74H540.381L524.414 55.3965L508.521 74H495.557L517.969 47.8159L495.483 21.4854H508.374L524.414 40.2354ZM607.69 74H564.258C563.574 74 562.939 73.8779 562.354 73.6338C561.768 73.3896 561.255 73.0601 560.815 72.645C560.4 72.2056 560.071 71.6929 559.827 71.1069C559.583 70.521 559.46 69.8862 559.46 69.2026V21.4854H568.982V64.4785H607.69V74ZM663.354 69.2026C663.354 69.8862 663.232 70.521 662.988 71.1069C662.744 71.6929 662.402 72.2056 661.963 72.645C661.523 73.0601 661.011 73.3896 660.425 73.6338C659.839 73.8779 659.216 74 658.557 74H637.097C635.071 74 633.02 73.7803 630.945 73.3408C628.87 72.9014 626.855 72.23 624.902 71.3267C622.974 70.3989 621.155 69.2271 619.446 67.811C617.737 66.395 616.235 64.7227 614.941 62.7939C613.672 60.8408 612.671 58.6191 611.938 56.1289C611.206 53.6143 610.84 50.8188 610.84 47.7427V21.4854H620.361V47.7427C620.361 50.4282 620.728 52.6987 621.46 54.5542C622.217 56.4097 623.169 57.96 624.316 59.2051C625.464 60.4502 626.721 61.4268 628.088 62.1348C629.456 62.8428 630.75 63.3677 631.97 63.7095C633.215 64.0513 634.302 64.271 635.229 64.3687C636.182 64.4419 636.804 64.4785 637.097 64.4785H653.833V21.4854H663.354V69.2026ZM724.915 58.5459C724.915 60.4258 724.67 62.1226 724.182 63.6362C723.718 65.1255 723.096 66.4438 722.314 67.5913C721.533 68.7388 720.618 69.7153 719.568 70.521C718.518 71.3267 717.432 71.9858 716.309 72.4985C715.186 73.0112 714.038 73.3896 712.866 73.6338C711.719 73.8779 710.632 74 709.607 74H672.876V64.4785H709.607C711.438 64.4785 712.854 63.9414 713.855 62.8672C714.88 61.793 715.393 60.3525 715.393 58.5459C715.393 57.667 715.259 56.8613 714.99 56.1289C714.722 55.3965 714.331 54.7617 713.818 54.2246C713.33 53.6875 712.72 53.2725 711.987 52.9795C711.279 52.6865 710.486 52.54 709.607 52.54H687.708C686.169 52.54 684.509 52.2715 682.727 51.7344C680.945 51.1729 679.285 50.2817 677.747 49.061C676.233 47.8403 674.963 46.2412 673.938 44.2637C672.937 42.2861 672.437 39.8691 672.437 37.0127C672.437 34.1562 672.937 31.7515 673.938 29.7983C674.963 27.8208 676.233 26.2217 677.747 25.001C679.285 23.7559 680.945 22.8647 682.727 22.3276C684.509 21.7661 686.169 21.4854 687.708 21.4854H720.117V31.0068H687.708C685.901 31.0068 684.485 31.5562 683.459 32.6548C682.458 33.7534 681.958 35.2061 681.958 37.0127C681.958 38.8438 682.458 40.2964 683.459 41.3706C684.485 42.4204 685.901 42.9453 687.708 42.9453H709.607H709.68C710.706 42.9697 711.792 43.1162 712.939 43.3848C714.087 43.6289 715.222 44.0195 716.345 44.5566C717.493 45.0938 718.579 45.7773 719.604 46.6074C720.63 47.4131 721.533 48.3896 722.314 49.5371C723.12 50.6846 723.755 52.0029 724.219 53.4922C724.683 54.9814 724.915 56.666 724.915 58.5459ZM742.419 74H732.898V21.4854H742.419V74ZM806.104 21.4854L781.238 72.1323C780.847 72.9136 780.261 73.5361 779.48 74C778.723 74.4883 777.881 74.7324 776.953 74.7324C776.05 74.7324 775.208 74.4883 774.426 74C773.669 73.5361 773.083 72.9136 772.668 72.1323L747.839 21.4854H758.496L776.953 59.3149L795.483 21.4854H806.104ZM854.663 52.54H824.597V42.9453H854.663V52.54ZM858.948 74H824.597C823.279 74 821.838 73.7681 820.276 73.3042C818.713 72.8403 817.261 72.0835 815.918 71.0337C814.6 69.9595 813.489 68.5801 812.585 66.8955C811.707 65.1865 811.267 63.0991 811.267 60.6333V26.2827C811.267 25.6235 811.389 25.001 811.633 24.415C811.877 23.8291 812.207 23.3164 812.622 22.877C813.062 22.4375 813.574 22.0957 814.16 21.8516C814.746 21.6074 815.381 21.4854 816.064 21.4854H858.948V31.0068H820.789V60.6333C820.789 61.8784 821.118 62.8306 821.777 63.4897C822.437 64.1489 823.401 64.4785 824.67 64.4785H858.948V74ZM945.044 39.1367C945.044 41.3096 944.775 43.2505 944.238 44.9595C943.701 46.6685 942.969 48.1821 942.041 49.5005C941.138 50.7944 940.088 51.9053 938.892 52.833C937.695 53.7607 936.438 54.5298 935.12 55.1401C933.826 55.7261 932.507 56.1533 931.165 56.4219C929.846 56.6904 928.601 56.8247 927.429 56.8247L947.314 74H932.593L912.744 56.8247H905.896V47.3032H927.429C928.625 47.2056 929.712 46.9614 930.688 46.5708C931.689 46.1558 932.544 45.6064 933.252 44.9229C933.984 44.2393 934.546 43.4214 934.937 42.4692C935.327 41.4927 935.522 40.3818 935.522 39.1367V33.1309C935.522 32.5938 935.449 32.1909 935.303 31.9224C935.181 31.6294 935.01 31.4219 934.79 31.2998C934.595 31.1533 934.375 31.0679 934.131 31.0435C933.911 31.019 933.704 31.0068 933.508 31.0068H902.087V74H892.566V26.2827C892.566 25.6235 892.688 25.001 892.932 24.415C893.176 23.8291 893.506 23.3164 893.921 22.877C894.36 22.4375 894.873 22.0957 895.459 21.8516C896.045 21.6074 896.68 21.4854 897.363 21.4854H933.508C935.632 21.4854 937.427 21.876 938.892 22.6572C940.356 23.4141 941.541 24.3784 942.444 25.5503C943.372 26.6978 944.031 27.9429 944.421 29.2856C944.836 30.6284 945.044 31.8857 945.044 33.0576V39.1367ZM997.778 52.54H967.712V42.9453H997.778V52.54ZM1002.06 74H967.712C966.394 74 964.954 73.7681 963.391 73.3042C961.829 72.8403 960.376 72.0835 959.033 71.0337C957.715 69.9595 956.604 68.5801 955.701 66.8955C954.822 65.1865 954.382 63.0991 954.382 60.6333V26.2827C954.382 25.6235 954.504 25.001 954.749 24.415C954.993 23.8291 955.322 23.3164 955.737 22.877C956.177 22.4375 956.689 22.0957 957.275 21.8516C957.861 21.6074 958.496 21.4854 959.18 21.4854H1002.06V31.0068H963.904V60.6333C963.904 61.8784 964.233 62.8306 964.893 63.4897C965.552 64.1489 966.516 64.4785 967.786 64.4785H1002.06V74ZM1063.77 69.9351C1063.77 70.6187 1063.64 71.2534 1063.37 71.8394C1063.12 72.4253 1062.78 72.938 1062.34 73.3774C1061.93 73.7925 1061.43 74.1221 1060.84 74.3662C1060.25 74.6104 1059.63 74.7324 1058.97 74.7324C1058.39 74.7324 1057.79 74.6226 1057.18 74.4028C1056.59 74.1831 1056.07 73.8291 1055.6 73.3408L1020.81 37.0127V74H1011.29V25.5503C1011.29 24.5737 1011.56 23.6948 1012.1 22.9136C1012.66 22.1079 1013.37 21.5098 1014.22 21.1191C1015.12 20.7529 1016.05 20.6675 1017 20.8628C1017.96 21.0337 1018.77 21.4731 1019.46 22.1812L1054.25 58.4727V21.4854H1063.77V69.9351ZM1122.33 31.0068H1101.34V74H1091.82V31.0068H1070.8V21.4854H1122.33V31.0068ZM1179.05 74H1169.53V61.1094H1136.06V74H1126.54V47.7427C1126.54 43.9097 1127.2 40.3818 1128.52 37.1592C1129.83 33.9365 1131.67 31.1655 1134.01 28.8462C1136.35 26.5269 1139.12 24.7202 1142.32 23.4263C1145.52 22.1323 1149.01 21.4854 1152.8 21.4854H1174.26C1174.91 21.4854 1175.54 21.6074 1176.12 21.8516C1176.71 22.0957 1177.22 22.4375 1177.66 22.877C1178.1 23.3164 1178.44 23.8291 1178.69 24.415C1178.93 25.001 1179.05 25.6235 1179.05 26.2827V74ZM1136.06 51.5879H1169.53V31.0068H1152.8C1152.5 31.0068 1151.88 31.0557 1150.93 31.1533C1150 31.2266 1148.91 31.4341 1147.67 31.7759C1146.45 32.1177 1145.15 32.6426 1143.79 33.3506C1142.42 34.0586 1141.16 35.0352 1140.01 36.2803C1138.87 37.5254 1137.92 39.0879 1137.16 40.9678C1136.43 42.8232 1136.06 45.0815 1136.06 47.7427V51.5879ZM1238.38 74H1194.95C1194.26 74 1193.63 73.8779 1193.04 73.6338C1192.46 73.3896 1191.94 73.0601 1191.5 72.645C1191.09 72.2056 1190.76 71.6929 1190.52 71.1069C1190.27 70.521 1190.15 69.8862 1190.15 69.2026V21.4854H1199.67V64.4785H1238.38V74ZM1295.84 58.5459C1295.84 60.4258 1295.59 62.1226 1295.1 63.6362C1294.64 65.1255 1294.02 66.4438 1293.24 67.5913C1292.46 68.7388 1291.54 69.7153 1290.49 70.521C1289.44 71.3267 1288.35 71.9858 1287.23 72.4985C1286.11 73.0112 1284.96 73.3896 1283.79 73.6338C1282.64 73.8779 1281.56 74 1280.53 74H1243.8V64.4785H1280.53C1282.36 64.4785 1283.78 63.9414 1284.78 62.8672C1285.8 61.793 1286.32 60.3525 1286.32 58.5459C1286.32 57.667 1286.18 56.8613 1285.91 56.1289C1285.64 55.3965 1285.25 54.7617 1284.74 54.2246C1284.25 53.6875 1283.64 53.2725 1282.91 52.9795C1282.2 52.6865 1281.41 52.54 1280.53 52.54H1258.63C1257.09 52.54 1255.43 52.2715 1253.65 51.7344C1251.87 51.1729 1250.21 50.2817 1248.67 49.061C1247.16 47.8403 1245.89 46.2412 1244.86 44.2637C1243.86 42.2861 1243.36 39.8691 1243.36 37.0127C1243.36 34.1562 1243.86 31.7515 1244.86 29.7983C1245.89 27.8208 1247.16 26.2217 1248.67 25.001C1250.21 23.7559 1251.87 22.8647 1253.65 22.3276C1255.43 21.7661 1257.09 21.4854 1258.63 21.4854H1291.04V31.0068H1258.63C1256.82 31.0068 1255.41 31.5562 1254.38 32.6548C1253.38 33.7534 1252.88 35.2061 1252.88 37.0127C1252.88 38.8438 1253.38 40.2964 1254.38 41.3706C1255.41 42.4204 1256.82 42.9453 1258.63 42.9453H1280.53H1280.6C1281.63 42.9697 1282.71 43.1162 1283.86 43.3848C1285.01 43.6289 1286.15 44.0195 1287.27 44.5566C1288.42 45.0938 1289.5 45.7773 1290.53 46.6074C1291.55 47.4131 1292.46 48.3896 1293.24 49.5371C1294.04 50.6846 1294.68 52.0029 1295.14 53.4922C1295.61 54.9814 1295.84 56.666 1295.84 58.5459Z" fill="white"/>
</svg>
