<svg width="183" height="97" viewBox="0 0 183 97" fill="none" xmlns="http://www.w3.org/2000/svg">
<path d="M57.0557 78H47.5342V65.1094H14.0625V78H4.54102V51.7427C4.54102 47.9097 5.2002 44.3818 6.51855 41.1592C7.83691 37.9365 9.66797 35.1655 12.0117 32.8462C14.3555 30.5269 17.1265 28.7202 20.3247 27.4263C23.5229 26.1323 27.0142 25.4854 30.7983 25.4854H52.2583C52.9175 25.4854 53.54 25.6074 54.126 25.8516C54.7119 26.0957 55.2246 26.4375 55.6641 26.877C56.1035 27.3164 56.4453 27.8291 56.6895 28.415C56.9336 29.001 57.0557 29.6235 57.0557 30.2827V78ZM14.0625 55.5879H47.5342V35.0068H30.7983C30.5054 35.0068 29.8828 35.0557 28.9307 35.1533C28.0029 35.2266 26.9165 35.4341 25.6714 35.7759C24.4507 36.1177 23.1567 36.6426 21.7896 37.3506C20.4224 38.0586 19.165 39.0352 18.0176 40.2803C16.8701 41.5254 15.918 43.0879 15.1611 44.9678C14.4287 46.8232 14.0625 49.0815 14.0625 51.7427V55.5879ZM111.328 56.54H81.2622V46.9453H111.328V56.54ZM115.613 78H81.2622C79.9438 78 78.5034 77.7681 76.9409 77.3042C75.3784 76.8403 73.9258 76.0835 72.583 75.0337C71.2646 73.9595 70.1538 72.5801 69.2505 70.8955C68.3716 69.1865 67.9321 67.0991 67.9321 64.6333V30.2827C67.9321 29.6235 68.0542 29.001 68.2983 28.415C68.5425 27.8291 68.8721 27.3164 69.2871 26.877C69.7266 26.4375 70.2393 26.0957 70.8252 25.8516C71.4111 25.6074 72.0459 25.4854 72.7295 25.4854H115.613V35.0068H77.4536V64.6333C77.4536 65.8784 77.7832 66.8306 78.4424 67.4897C79.1016 68.1489 80.0659 68.4785 81.3354 68.4785H115.613V78ZM177.319 43.1367C177.319 45.3096 177.051 47.2505 176.514 48.9595C175.977 50.6685 175.244 52.1821 174.316 53.5005C173.413 54.7944 172.363 55.9053 171.167 56.833C169.971 57.7607 168.713 58.5298 167.395 59.1401C166.101 59.7261 164.783 60.1533 163.44 60.4219C162.122 60.6904 160.876 60.8247 159.705 60.8247L179.59 78H164.868L145.02 60.8247H138.171V51.3032H159.705C160.901 51.2056 161.987 50.9614 162.964 50.5708C163.965 50.1558 164.819 49.6064 165.527 48.9229C166.26 48.2393 166.821 47.4214 167.212 46.4692C167.603 45.4927 167.798 44.3818 167.798 43.1367V37.1309C167.798 36.5938 167.725 36.1909 167.578 35.9224C167.456 35.6294 167.285 35.4219 167.065 35.2998C166.87 35.1533 166.65 35.0679 166.406 35.0435C166.187 35.019 165.979 35.0068 165.784 35.0068H134.363V78H124.841V30.2827C124.841 29.6235 124.963 29.001 125.208 28.415C125.452 27.8291 125.781 27.3164 126.196 26.877C126.636 26.4375 127.148 26.0957 127.734 25.8516C128.32 25.6074 128.955 25.4854 129.639 25.4854H165.784C167.908 25.4854 169.702 25.876 171.167 26.6572C172.632 27.4141 173.816 28.3784 174.719 29.5503C175.647 30.6978 176.306 31.9429 176.697 33.2856C177.112 34.6284 177.319 35.8857 177.319 37.0576V43.1367Z" fill="#E5E5E5"/>
<path d="M57.0557 74H47.5342V61.1094H14.0625V74H4.54102V47.7427C4.54102 43.9097 5.2002 40.3818 6.51855 37.1592C7.83691 33.9365 9.66797 31.1655 12.0117 28.8462C14.3555 26.5269 17.1265 24.7202 20.3247 23.4263C23.5229 22.1323 27.0142 21.4854 30.7983 21.4854H52.2583C52.9175 21.4854 53.54 21.6074 54.126 21.8516C54.7119 22.0957 55.2246 22.4375 55.6641 22.877C56.1035 23.3164 56.4453 23.8291 56.6895 24.415C56.9336 25.001 57.0557 25.6235 57.0557 26.2827V74ZM14.0625 51.5879H47.5342V31.0068H30.7983C30.5054 31.0068 29.8828 31.0557 28.9307 31.1533C28.0029 31.2266 26.9165 31.4341 25.6714 31.7759C24.4507 32.1177 23.1567 32.6426 21.7896 33.3506C20.4224 34.0586 19.165 35.0352 18.0176 36.2803C16.8701 37.5254 15.918 39.0879 15.1611 40.9678C14.4287 42.8232 14.0625 45.0815 14.0625 47.7427V51.5879Z" fill="#FF0000"/>
<path d="M111.328 52.54H81.2622V42.9453H111.328V52.54ZM115.613 74H81.2622C79.9438 74 78.5034 73.7681 76.9409 73.3042C75.3784 72.8403 73.9258 72.0835 72.583 71.0337C71.2646 69.9595 70.1538 68.5801 69.2505 66.8955C68.3716 65.1865 67.9321 63.0991 67.9321 60.6333V26.2827C67.9321 25.6235 68.0542 25.001 68.2983 24.415C68.5425 23.8291 68.8721 23.3164 69.2871 22.877C69.7266 22.4375 70.2393 22.0957 70.8252 21.8516C71.4111 21.6074 72.0459 21.4854 72.7295 21.4854H115.613V31.0068H77.4536V60.6333C77.4536 61.8784 77.7832 62.8306 78.4424 63.4897C79.1016 64.1489 80.0659 64.4785 81.3354 64.4785H115.613V74ZM177.319 39.1367C177.319 41.3096 177.051 43.2505 176.514 44.9595C175.977 46.6685 175.244 48.1821 174.316 49.5005C173.413 50.7944 172.363 51.9053 171.167 52.833C169.971 53.7607 168.713 54.5298 167.395 55.1401C166.101 55.7261 164.783 56.1533 163.44 56.4219C162.122 56.6904 160.876 56.8247 159.705 56.8247L179.59 74H164.868L145.02 56.8247H138.171V47.3032H159.705C160.901 47.2056 161.987 46.9614 162.964 46.5708C163.965 46.1558 164.819 45.6064 165.527 44.9229C166.26 44.2393 166.821 43.4214 167.212 42.4692C167.603 41.4927 167.798 40.3818 167.798 39.1367V33.1309C167.798 32.5938 167.725 32.1909 167.578 31.9224C167.456 31.6294 167.285 31.4219 167.065 31.2998C166.87 31.1533 166.65 31.0679 166.406 31.0435C166.187 31.019 165.979 31.0068 165.784 31.0068H134.363V74H124.841V26.2827C124.841 25.6235 124.963 25.001 125.208 24.415C125.452 23.8291 125.781 23.3164 126.196 22.877C126.636 22.4375 127.148 22.0957 127.734 21.8516C128.32 21.6074 128.955 21.4854 129.639 21.4854H165.784C167.908 21.4854 169.702 21.876 171.167 22.6572C172.632 23.4141 173.816 24.3784 174.719 25.5503C175.647 26.6978 176.306 27.9429 176.697 29.2856C177.112 30.6284 177.319 31.8857 177.319 33.0576V39.1367Z" fill="white"/>
</svg>
